{"title":"Brotherhood.aka.Broderskab.2009.DVDRiP.XviD.OPTIONAL-MULTI_SUB-Z","uid":5885452,"size":751777283,"categoryP":"video","categoryS":"movies","magnet":"?xt=urn:btih:a65d9d4509f6bda18f1a19019278505abc2bd276&amp;dn=Brotherhood.aka.Broderskab.2009.DVDRiP.XviD.OPTIONAL-MULTI_SUB-Z&amp;tr=udp%3A%2F%2Ftracker.openbittorrent.com%3A80&amp;tr=udp%3A%2F%2Fopen.demonii.com%3A1337&amp;tr=udp%3A%2F%2Ftracker.coppersurfer.tk%3A6969&amp;tr=udp%3A%2F%2Fexodus.desync.com%3A6969","seeders":6,"leechers":1,"uploader":"Zen_Bud","files":12,"time":1287040684,"description":"\n Brotherhood.aka.Broderskab.2009.DVDRiP.XviD.OPTIONAL-MULTI_SUB-Zen_Bud\n\n\nFormat                           : AVI\nFormat/Info                      : Audio Video Interleave\nFile size                        : 706 MiB\nDuration                         : 1h 36mn\nOverall bit rate                 : 1 018 Kbps\n\nVideo\n\nFormat                           : MPEG-4 Visual\nCodec ID/Hint                    : XviD\nDuration                         : 1h 36mn\nBit rate                         : 877 Kbps\nWidth                            : 718 pixels\nHeight                           : 436 pixels\nDisplay aspect ratio             : 2.35:1\nStream size                      : 608 MiB (86%)\nWriting library                  : XviD 1.1.2 (UTC 2006-11-01)\n\nAudio\n\nFormat                           : MPEG Audio\nCodec ID/Hint                    : MP3\nDuration                         : 1h 36mn\nBit rate                         : 128 Kbps\nChannel(s)                       : 2 channels\nSampling rate                    : 48.0 KHz\nStream size                      : 88.8 MiB (13%)\nLanguage                         : Danish\n\nText #1\nLanguage                         : Danish\n\nText #2\nLanguage                         : Swedish\n\nText #3\nLanguage                         : Norwegian\n\nText #4\nLanguage                         : Finnish\n\nText #5\nLanguage                         : English\n &lt;a href=&quot;\nhttp://en.wikipedia.org/wiki/Brotherhood_%282009_film%29&quot; rel=&quot;nofollow&quot; target=&quot;_NEW&quot;&gt;\nhttp://en.wikipedia.org/wiki/Brotherhood_%282009_film%29&lt;/a&gt;","torrent":{"xt":"urn:btih:a65d9d4509f6bda18f1a19019278505abc2bd276","amp;dn":"Brotherhood.aka.Broderskab.2009.DVDRiP.XviD.OPTIONAL-MULTI_SUB-Z","amp;tr":["udp%3A%2F%2Ftracker.openbittorrent.com%3A80","udp%3A%2F%2Fopen.demonii.com%3A1337","udp%3A%2F%2Ftracker.coppersurfer.tk%3A6969","udp%3A%2F%2Fexodus.desync.com%3A6969"],"infoHash":"a65d9d4509f6bda18f1a19019278505abc2bd276","infoHashBuffer":{"type":"Buffer","data":[166,93,157,69,9,246,189,161,143,26,25,1,146,120,80,90,188,43,210,118]},"announce":[],"urlList":[]}}